# xmcd CD database file
#
# Track frame offsets:
#	150
#	20612
#	39015
#	59379
#	78092
#	100285
#	127215
#	144821
#	164269
#	185699
#	201905
#	225498
#	243936
#	259574
#	281439
#
# Disc length: 4121 seconds
#
# Revision: 10
# Processed by: cddbd v1.5.1PL0 Copyright (c) Steve Scherf et al.
# Submitted via: CDex 1.51
#
DISCID=c210170f
DTITLE=KICK THE CAN CREW - BEST ALBUM 2001-2003
DYEAR=2003
DGENRE=Hip-Hop
TTITLE0=STEP IN THE DAY
TTITLE1=スーパーオリジナル
TTITLE2=イツナロウバ
TTITLE3=カンケリ01
TTITLE4=LIFELINE
TTITLE5=クリスマス・イブ ＲＡＰ
TTITLE6=マルシェ
TTITLE7=ONE WAY
TTITLE8=VITALIZER
TTITLE9=sayonara sayonara
TTITLE10=アンバランス
TTITLE11=地球ブルース〜337〜
TTITLE12=DJ DJ [for RADIO]
TTITLE13=TORIIIIIICO! feat. CASSETE VISION
TTITLE14=magic number
EXTD=YEAR: 2003
EXTT0=
EXTT1=
EXTT2=
EXTT3=
EXTT4=
EXTT5=
EXTT6=
EXTT7=
EXTT8=
EXTT9=
EXTT10=
EXTT11=
EXTT12=
EXTT13=
EXTT14=
PLAYORDER=
